# 3ds Max Wavefront OBJ Exporter v0.97b - (c)2007 guruware
# File Created: 17.09.2015 00:28:48

mtllib Cartoon low poly trees.mtl

#
# object Tree_1
#

v  -17.2313 -0.7459 0.4244
v  -14.5117 -0.7506 0.4044
v  -14.8964 2.9847 0.1116
v  -16.8510 2.1818 0.1034
v  -14.4916 -0.8426 -2.7060
v  -14.8816 2.9276 -2.1964
v  -17.2113 -0.8379 -2.6860
v  -16.8361 2.1247 -2.2046
v  -15.9943 7.0479 0.5108
v  -17.8253 7.0479 0.5108
v  -15.9943 7.0479 -1.3202
v  -17.8253 7.0479 -1.3202
v  -17.3582 12.7123 0.6315
v  -18.6527 12.7123 0.6315
v  -17.3582 12.7123 -0.6630
v  -18.6527 12.7123 -0.6630
v  -18.0754 14.1258 0.5261
v  -16.9917 14.1258 0.5261
v  -13.0674 23.9423 -0.1448
v  -13.7774 23.9423 -0.1448
v  -16.9917 14.1258 -0.5576
v  -13.0674 23.9423 -0.8548
v  -18.0754 14.1258 -0.5576
v  -13.7774 23.9423 -0.8548
v  -23.8783 19.2366 -0.6841
v  -23.8783 19.2366 -0.3154
v  -24.5338 18.8501 -0.7367
v  -24.5338 18.8501 -0.2629
v  -27.0084 22.9581 -0.5247
v  -27.0084 22.9581 -0.4749
v  -27.2776 22.7994 -0.4964
v  -27.2776 22.7994 -0.5031
v  -26.0807 29.9068 -3.2795
v  -29.2129 28.0100 -3.9490
v  -25.8383 28.3643 0.1423
v  -31.0283 26.2971 -0.7050
v  -31.8658 29.5796 1.6817
v  -29.3362 27.3158 3.8816
v  -23.2985 29.8136 -1.8790
v  -25.5670 27.4668 3.0883
v  -22.9859 27.8802 2.2683
v  -22.5316 27.6921 -5.1456
v  -19.9711 25.6803 0.4835
v  -21.7363 25.8336 -3.8789
v  -26.6979 29.1478 -6.8226
v  -25.4230 25.2755 -6.8120
v  -29.1110 25.1794 -6.5878
v  -29.6957 26.4251 -3.6662
v  -33.0364 23.5590 -2.6070
v  -32.3831 24.5742 1.1397
v  -30.0903 20.8881 -2.2637
v  -32.4825 20.6022 2.5659
v  -30.6254 23.5496 3.6849
v  -29.6398 22.9643 5.2858
v  -26.2773 25.3463 6.0538
v  -29.2921 22.1056 7.0677
v  -26.1953 21.9355 6.2734
v  -22.5044 25.7386 4.9458
v  -20.5646 24.9193 0.3703
v  -22.2869 21.8543 3.8726
v  -21.1497 19.2150 1.0578
v  -21.0889 21.6374 -2.5190
v  -21.4310 22.4128 -4.4860
v  -20.6776 19.5414 -1.8169
v  -23.6629 20.0661 -4.1916
v  -25.4606 21.4828 -5.7207
v  -28.8361 24.3807 -5.9399
v  -28.0332 20.5638 -3.0259
v  -25.7702 18.4234 1.4262
v  -26.0950 18.2115 5.0951
v  -29.2090 19.6487 3.6852
v  -23.2373 19.9916 0.8719
v  -24.5945 19.0256 -1.7742
v  -28.6633 18.4101 0.0768
v  -12.3477 24.1198 -7.1063
v  -16.2252 23.3380 -6.1479
v  -11.9707 26.5129 -3.7833
v  -18.0852 25.9981 -3.0672
v  -17.7835 30.0845 -5.0008
v  -15.3615 30.3930 -1.3132
v  -9.2316 24.6899 -5.8521
v  -11.4715 28.7711 -1.3182
v  -8.7709 27.5539 -1.7618
v  -9.4462 20.3697 -5.4935
v  -6.4163 24.0223 -0.1990
v  -8.8881 20.4386 -2.9466
v  -13.7181 20.5647 -8.3845
v  -13.3499 18.3312 -4.5448
v  -17.2254 19.4243 -4.8846
v  -17.0912 22.9392 -4.5769
v  -21.1747 23.3555 -1.8105
v  -19.6714 27.2203 -0.6587
v  -18.6936 21.6101 1.3266
v  -20.5647 26.6158 3.8290
v  -17.6984 28.6636 1.9328
v  -16.5689 29.6310 3.4894
v  -12.3118 30.6882 2.1618
v  -16.1532 30.7938 5.3051
v  -13.0526 29.1811 5.5013
v  -8.4041 28.8890 1.7614
v  -7.2501 23.6877 0.3678
v  -9.3144 25.8962 4.8732
v  -9.2022 21.6508 6.0168
v  -9.0611 19.4722 1.8280
v  -9.5196 18.0924 -0.0077
v  -9.0517 18.9887 4.2383
v  -12.4183 17.7673 2.0254
v  -14.1829 17.4850 -0.3962
v  -17.0406 19.5682 -3.7444
v  -16.7223 20.2132 1.5299
v  -14.2138 22.7695 6.2697
v  -14.0618 26.1986 8.3884
v  -17.1900 26.3705 5.8151
v  -11.2331 22.3877 4.8747
v  -13.3012 19.7605 4.1619
v  -17.4660 22.2226 5.1267
# 116 vertices

vn -0.0101 0.0898 0.9959
vn 0.0075 0.0789 0.9969
vn -0.0213 0.0968 0.9951
vn -0.0516 0.1155 0.9920
vn 0.9947 0.1025 0.0036
vn 0.9947 0.1024 0.0034
vn 0.9947 0.1026 0.0037
vn 0.9947 0.1028 0.0039
vn -0.0230 0.1489 -0.9886
vn -0.0070 0.1612 -0.9869
vn -0.0330 0.1411 -0.9894
vn -0.0487 0.1288 -0.9905
vn -0.9918 0.1275 -0.0099
vn -0.9918 0.1277 -0.0102
vn -0.9918 0.1274 -0.0099
vn -0.9918 0.1271 -0.0095
vn 0.0161 -0.0863 0.9961
vn 0.9654 0.2608 -0.0001
vn -0.0366 0.1828 -0.9825
vn -0.9805 -0.1966 -0.0008
vn -0.0000 -0.0213 0.9998
vn 0.9722 0.2341 0.0000
vn 0.0000 0.1152 -0.9933
vn -0.9895 -0.1445 -0.0000
vn -0.0000 0.0682 0.9977
vn 0.9285 -0.3712 0.0000
vn 0.0000 -0.0303 -0.9995
vn -0.9160 0.4011 0.0000
vn -0.0000 0.0744 0.9972
vn 0.9680 -0.2510 0.0000
vn 0.0000 0.0744 -0.9972
vn 0.6609 0.7504 0.0000
vn 0.0611 0.0457 -0.9971
vn -0.7221 -0.6918 0.0000
vn -0.0383 0.1134 0.9928
vn 0.7653 0.6437 0.0000
vn 0.0313 0.0823 -0.9961
vn -0.8212 -0.5706 -0.0000
vn 0.0313 0.0823 0.9961
vn -0.5374 0.7539 0.3779
vn -0.8896 0.0975 -0.4463
vn 0.1436 0.9687 -0.2024
vn 0.2923 0.8142 0.5017
vn -0.1789 0.8921 0.4148
vn 0.0226 0.9569 0.2895
vn -0.2786 0.9113 0.3033
vn -0.0107 0.9060 0.4232
vn 0.2693 0.8353 -0.4793
vn 0.6673 0.6931 0.2728
vn 0.8129 0.5568 -0.1707
vn 0.9192 0.1433 -0.3669
vn 0.4098 0.8747 -0.2588
vn 0.6265 -0.2378 -0.7422
vn 0.4096 0.1324 -0.9026
vn -0.0601 -0.0225 -0.9979
vn -0.5003 0.8604 -0.0972
vn -0.8061 0.4688 -0.3612
vn -0.7704 0.1231 -0.6255
vn -0.8962 0.2026 -0.3946
vn -0.7982 0.6020 -0.0239
vn -0.6084 -0.7153 -0.3437
vn -0.9855 0.0787 0.1505
vn -0.7511 0.2397 0.6152
vn -0.4125 0.3057 0.8581
vn -0.2369 0.8563 0.4589
vn -0.5835 0.6812 0.4421
vn 0.2514 0.0682 0.9655
vn 0.8223 0.5072 0.2578
vn 0.5095 -0.2025 0.8363
vn 0.9152 -0.0589 0.3986
vn 0.9112 -0.0441 0.4095
vn 0.9856 0.1106 -0.1278
vn 0.9510 0.2483 0.1844
vn 0.9817 0.1560 -0.1092
vn 0.4674 -0.5330 -0.7053
vn -0.5126 -0.6403 -0.5720
vn -0.2291 -0.8334 -0.5029
vn -0.4694 -0.5961 -0.6514
vn -0.3577 -0.6130 -0.7044
vn -0.4413 -0.8956 -0.0558
vn -0.4573 0.3019 0.8365
vn -0.8292 0.0252 0.5584
vn -0.8565 0.1422 -0.4962
vn 0.2746 0.0684 0.9591
vn 0.0698 0.7851 0.6154
vn 0.0912 0.7996 0.5936
vn 0.0930 0.7992 0.5938
vn 0.9925 -0.1086 -0.0567
vn 0.9270 0.0217 -0.3743
vn 0.6276 -0.5685 0.5319
vn 0.2760 -0.3485 0.8958
vn 0.3544 -0.4405 -0.8248
vn -0.0512 -0.2757 -0.9599
vn 0.3377 -0.2634 -0.9037
vn 0.5931 0.1917 -0.7820
vn -0.4381 -0.5723 -0.6932
vn -0.6748 0.6852 -0.2741
vn -0.6043 0.4653 -0.6468
vn -0.9353 -0.3519 -0.0371
vn -0.3847 -0.9189 -0.0871
vn 0.2230 -0.2886 0.9311
vn -0.5380 -0.6882 0.4867
vn -0.9171 -0.3330 0.2193
vn 0.5260 -0.8505 -0.0025
vn -0.3304 -0.7514 0.5711
vn 0.7099 -0.6767 0.1952
vn 0.5033 -0.2483 0.8277
vn 0.5318 -0.8461 0.0361
vn 0.1183 -0.9278 -0.3538
vn 0.1283 -0.9510 0.2814
vn -0.3316 -0.9297 -0.1600
vn 0.0776 -0.9846 -0.1567
vn -0.3327 -0.7417 -0.5824
vn -0.1448 -0.7988 -0.5839
vn -0.2198 -0.8624 -0.4559
vn -0.1370 -0.9431 0.3030
vn -0.3542 -0.1285 0.9263
vn -0.3501 -0.9010 0.2563
vn -0.6279 -0.6941 -0.3521
vn -0.2923 0.7915 -0.5368
vn -0.8954 -0.1347 -0.4243
vn 0.3342 0.2325 -0.9134
vn 0.5378 0.7340 -0.4147
vn 0.0900 0.8033 -0.5887
vn 0.2820 0.6783 -0.6785
vn -0.0169 0.7390 -0.6735
vn 0.2564 0.7780 -0.5736
vn 0.3866 -0.0953 -0.9173
vn 0.8399 0.3956 -0.3716
vn 0.8883 -0.0816 -0.4520
vn 0.8685 -0.4627 -0.1778
vn 0.5612 0.0799 -0.8238
vn 0.4474 -0.8913 -0.0739
vn 0.3019 -0.8112 -0.5008
vn -0.1993 -0.8552 -0.4784
vn -0.2968 0.4224 -0.8565
vn -0.7178 0.0879 -0.6907
vn -0.7993 -0.3048 -0.5179
vn -0.8706 -0.0409 -0.4903
vn -0.6334 0.4367 -0.6388
vn -0.7981 -0.4802 0.3640
vn -0.9107 0.3925 -0.1284
vn -0.5844 0.8115 -0.0070
vn -0.2098 0.9725 0.1015
vn 0.0319 0.8383 -0.5442
vn -0.3447 0.8243 -0.4490
vn 0.3897 0.8039 0.4492
vn 0.9444 0.2625 -0.1978
vn 0.5583 0.5103 0.6541
vn 0.9226 0.1052 0.3711
vn 0.9236 0.1223 0.3633
vn 0.9576 -0.2871 -0.0234
vn 0.9986 0.0521 0.0065
vn 0.9669 -0.2496 -0.0539
vn 0.2311 -0.9568 0.1765
vn -0.7196 -0.6648 0.2005
vn -0.4815 -0.7584 0.4393
vn -0.6786 -0.7230 0.1294
vn -0.5821 -0.8021 0.1332
vn -0.6393 -0.3529 0.6832
vn -0.2568 0.9624 0.0881
vn -0.7168 0.6833 0.1390
vn -0.8601 -0.1649 -0.4827
vn 0.4112 0.7932 0.4492
vn 0.3323 0.8700 -0.3643
vn 0.3533 0.8528 -0.3845
vn 0.3549 0.8524 -0.3839
vn 0.9234 -0.3270 0.2012
vn 0.8470 -0.5261 -0.0758
vn 0.5462 0.0549 0.8359
vn 0.3078 0.5491 0.7770
vn 0.1272 -0.9916 0.0229
vn -0.2439 -0.9395 -0.2406
vn 0.1412 -0.9752 -0.1705
vn 0.5089 -0.7227 -0.4676
vn -0.6487 -0.7554 0.0927
vn -0.5295 0.2308 -0.8163
vn -0.5632 -0.2061 -0.8002
vn -0.9873 0.0240 0.1570
vn -0.5944 -0.4035 0.6956
vn 0.2754 0.6189 0.7356
vn -0.6106 0.2305 0.7577
vn -0.9304 0.2491 0.2690
vn 0.3103 -0.5096 0.8025
vn -0.4136 0.2266 0.8818
vn 0.5546 -0.3029 0.7750
vn 0.5406 0.4835 0.6885
vn 0.3221 -0.4757 0.8185
vn -0.1483 -0.7530 0.6411
vn -0.0573 -0.2192 0.9740
vn -0.5557 -0.4833 0.6764
vn -0.1737 -0.5998 0.7811
vn -0.5711 -0.7612 0.3072
vn -0.4034 -0.8318 0.3813
vn -0.4729 -0.7332 0.4886
vn -0.3081 -0.1358 0.9416
vn -0.2444 0.8205 0.5167
vn -0.5101 -0.1077 0.8534
vn -0.8130 -0.4734 0.3390
# 199 vertex normals

vt 0.0000 0.0000 0.0000
vt 1.0000 0.0000 0.0000
vt 1.0000 1.0000 0.0000
vt 0.0000 1.0000 0.0000
vt 0.6000 1.0000 1.7431
vt 0.5000 0.8238 1.7431
vt 0.7000 0.8238 1.7431
vt 0.5000 0.6476 1.7431
vt 0.6000 0.6762 1.7431
vt 0.7000 0.6476 1.7431
vt 0.8000 1.0000 1.7431
vt 0.9000 0.8238 1.7431
vt 0.8000 0.6762 1.7431
vt 0.9000 0.6476 1.7431
vt 0.0000 1.0000 1.7431
vt -0.1000 0.8238 1.7431
vt 0.1000 0.8238 1.7431
vt -0.1000 0.6476 1.7431
vt 0.0000 0.6762 1.7431
vt 0.1000 0.6476 1.7431
vt 0.2000 1.0000 1.7431
vt 0.3000 0.8238 1.7431
vt 0.2000 0.6762 1.7431
vt 0.3000 0.6476 1.7431
vt 0.4000 1.0000 1.7431
vt 0.4000 0.6762 1.7431
vt 0.4500 0.5000 1.7431
vt 0.5500 0.5000 1.7431
vt 0.4000 0.3524 1.7431
vt 0.5000 0.3238 1.7431
vt 0.6000 0.3524 1.7431
vt 0.6500 0.5000 1.7431
vt 0.7500 0.5000 1.7431
vt 0.7000 0.3238 1.7431
vt 0.8000 0.3524 1.7431
vt 0.8500 0.5000 1.7431
vt 0.9500 0.5000 1.7431
vt 0.9000 0.3238 1.7431
vt -0.0500 0.5000 1.7431
vt -0.1000 0.3238 1.7431
vt 0.0000 0.3524 1.7431
vt 0.0500 0.5000 1.7431
vt 0.1500 0.5000 1.7431
vt 0.1000 0.3238 1.7431
vt 0.2000 0.3524 1.7431
vt 0.2500 0.5000 1.7431
vt 0.3500 0.5000 1.7431
vt 0.3000 0.3238 1.7431
vt 0.7000 0.0000 1.7431
vt 0.8000 0.1762 1.7431
vt 0.6000 0.1762 1.7431
vt -0.1000 0.0000 1.7431
vt 0.0000 0.1762 1.7431
vt -0.2000 0.1762 1.7431
vt 0.1000 0.0000 1.7431
vt 0.2000 0.1762 1.7431
vt 0.3000 0.0000 1.7431
vt 0.4000 0.1762 1.7431
vt 0.5000 0.0000 1.7431
# 59 texture coords

g Tree_1
usemtl Trunk_1
s 8
f 1/1/1 2/2/2 3/3/3 4/4/4 
s 16
f 2/1/5 5/2/6 6/3/7 3/4/8 
s 32
f 5/1/9 7/2/10 8/3/11 6/4/12 
s 64
f 7/1/13 1/2/14 4/3/15 8/4/16 
s off
f 4/4/17 3/3/17 9/2/17 10/1/17 
f 3/4/18 6/3/18 11/3/18 9/2/18 
f 6/4/19 8/3/19 12/4/19 11/3/19 
f 8/4/20 4/3/20 10/1/20 12/4/20 
f 9/2/21 13/2/21 14/1/21 10/1/21 
f 11/3/22 15/3/22 13/2/22 9/2/22 
f 11/3/23 12/4/23 16/4/23 15/3/23 
f 10/1/24 14/1/24 16/4/24 12/4/24 
f 17/1/25 18/2/25 19/2/25 20/1/25 
f 18/2/26 21/3/26 22/3/26 19/2/26 
f 21/3/27 23/4/27 24/4/27 22/3/27 
f 23/4/28 17/1/28 20/1/28 24/4/28 
f 13/2/29 18/2/29 17/1/29 14/1/29 
f 21/3/30 18/2/30 13/2/30 15/3/30 
f 23/4/31 21/3/31 15/3/31 16/4/31 
f 17/1/32 23/4/32 25/4/32 26/1/32 
f 23/4/33 16/4/33 27/4/33 25/4/33 
f 16/4/34 14/1/34 28/1/34 27/4/34 
f 14/1/35 17/1/35 26/1/35 28/1/35 
f 29/1/36 26/1/36 25/4/36 30/4/36 
f 25/4/37 27/4/37 31/4/37 30/4/37 
f 31/4/38 27/4/38 28/1/38 32/1/38 
f 28/1/39 26/1/39 29/1/39 32/1/39 
usemtl Treetop_1
f 33/5/40 34/6/40 35/7/40 
f 34/6/41 36/8/41 37/9/41 
f 34/6/42 37/9/42 35/7/42 
f 35/7/43 37/9/43 38/10/43 
f 33/11/44 35/7/44 39/12/44 
f 35/7/45 38/10/45 40/13/45 
f 35/7/46 40/13/46 39/12/46 
f 39/12/47 40/13/47 41/14/47 
f 33/15/48 39/16/48 42/17/48 
f 39/16/49 41/18/49 43/19/49 
f 39/16/50 43/19/50 42/17/50 
f 42/17/51 43/19/51 44/20/51 
f 33/21/52 42/17/52 45/22/52 
f 42/17/53 44/20/53 46/23/53 
f 42/17/54 46/23/54 45/22/54 
f 45/22/55 46/23/55 47/24/55 
f 33/25/56 45/22/56 34/6/56 
f 45/22/57 47/24/57 48/26/57 
f 45/22/58 48/26/58 34/6/58 
f 34/6/59 48/26/59 36/8/59 
f 36/8/60 49/27/60 50/28/60 
f 49/27/61 51/29/61 52/30/61 
f 49/27/62 52/30/62 50/28/62 
f 50/28/63 52/30/63 53/31/63 
f 38/10/64 54/32/64 55/33/64 
f 54/32/65 53/31/65 56/34/65 
f 54/32/66 56/34/66 55/33/66 
f 55/33/67 56/34/67 57/35/67 
f 41/14/68 58/36/68 59/37/68 
f 58/36/69 57/35/69 60/38/69 
f 58/36/70 60/38/70 59/37/70 
f 59/39/71 60/40/71 61/41/71 
f 44/20/72 62/42/72 63/43/72 
f 62/42/73 61/41/73 64/44/73 
f 62/42/74 64/44/74 63/43/74 
f 63/43/75 64/44/75 65/45/75 
f 47/24/76 66/46/76 67/47/76 
f 66/46/77 65/45/77 68/48/77 
f 66/46/78 68/48/78 67/47/78 
f 67/47/79 68/48/79 51/29/79 
f 53/31/80 54/32/80 50/28/80 
f 54/32/81 38/10/81 37/9/81 
f 54/32/82 37/9/82 50/28/82 
f 50/28/83 37/9/83 36/8/83 
f 57/35/84 58/36/84 55/33/84 
f 58/36/85 41/14/85 40/13/85 
f 58/36/86 40/13/86 55/33/86 
f 55/33/87 40/13/87 38/10/87 
f 61/41/88 62/42/88 59/39/88 
f 62/42/89 44/20/89 43/19/89 
f 62/42/90 43/19/90 59/39/90 
f 59/39/91 43/19/91 41/18/91 
f 65/45/92 66/46/92 63/43/92 
f 66/46/93 47/24/93 46/23/93 
f 66/46/94 46/23/94 63/43/94 
f 63/43/95 46/23/95 44/20/95 
f 51/29/96 49/27/96 67/47/96 
f 49/27/97 36/8/97 48/26/97 
f 49/27/98 48/26/98 67/47/98 
f 67/47/99 48/26/99 47/24/99 
f 69/49/100 70/50/100 71/51/100 
f 70/50/101 57/35/101 56/34/101 
f 70/50/102 56/34/102 71/51/102 
f 71/51/103 56/34/103 53/31/103 
f 69/52/104 72/53/104 70/54/104 
f 72/53/105 61/41/105 60/40/105 
f 72/53/106 60/40/106 70/54/106 
f 70/50/107 60/38/107 57/35/107 
f 69/55/108 73/56/108 72/53/108 
f 73/56/109 65/45/109 64/44/109 
f 73/56/110 64/44/110 72/53/110 
f 72/53/111 64/44/111 61/41/111 
f 69/57/112 74/58/112 73/56/112 
f 74/58/113 51/29/113 68/48/113 
f 74/58/114 68/48/114 73/56/114 
f 73/56/115 68/48/115 65/45/115 
f 69/59/116 71/51/116 74/58/116 
f 71/51/117 53/31/117 52/30/117 
f 71/51/118 52/30/118 74/58/118 
f 74/58/119 52/30/119 51/29/119 
f 75/5/120 76/6/120 77/7/120 
f 76/6/121 78/8/121 79/9/121 
f 76/6/122 79/9/122 77/7/122 
f 77/7/123 79/9/123 80/10/123 
f 75/11/124 77/7/124 81/12/124 
f 77/7/125 80/10/125 82/13/125 
f 77/7/126 82/13/126 81/12/126 
f 81/12/127 82/13/127 83/14/127 
f 75/15/128 81/16/128 84/17/128 
f 81/16/129 83/18/129 85/19/129 
f 81/16/130 85/19/130 84/17/130 
f 84/17/131 85/19/131 86/20/131 
f 75/21/132 84/17/132 87/22/132 
f 84/17/133 86/20/133 88/23/133 
f 84/17/134 88/23/134 87/22/134 
f 87/22/135 88/23/135 89/24/135 
f 75/25/136 87/22/136 76/6/136 
f 87/22/137 89/24/137 90/26/137 
f 87/22/138 90/26/138 76/6/138 
f 76/6/139 90/26/139 78/8/139 
f 78/8/140 91/27/140 92/28/140 
f 91/27/141 93/29/141 94/30/141 
f 91/27/142 94/30/142 92/28/142 
f 92/28/143 94/30/143 95/31/143 
f 80/10/144 96/32/144 97/33/144 
f 96/32/145 95/31/145 98/34/145 
f 96/32/146 98/34/146 97/33/146 
f 97/33/147 98/34/147 99/35/147 
f 83/14/148 100/36/148 101/37/148 
f 100/36/149 99/35/149 102/38/149 
f 100/36/150 102/38/150 101/37/150 
f 101/39/151 102/40/151 103/41/151 
f 86/20/152 104/42/152 105/43/152 
f 104/42/153 103/41/153 106/44/153 
f 104/42/154 106/44/154 105/43/154 
f 105/43/155 106/44/155 107/45/155 
f 89/24/156 108/46/156 109/47/156 
f 108/46/157 107/45/157 110/48/157 
f 108/46/158 110/48/158 109/47/158 
f 109/47/159 110/48/159 93/29/159 
f 95/31/160 96/32/160 92/28/160 
f 96/32/161 80/10/161 79/9/161 
f 96/32/162 79/9/162 92/28/162 
f 92/28/163 79/9/163 78/8/163 
f 99/35/164 100/36/164 97/33/164 
f 100/36/165 83/14/165 82/13/165 
f 100/36/166 82/13/166 97/33/166 
f 97/33/167 82/13/167 80/10/167 
f 103/41/168 104/42/168 101/39/168 
f 104/42/169 86/20/169 85/19/169 
f 104/42/170 85/19/170 101/39/170 
f 101/39/171 85/19/171 83/18/171 
f 107/45/172 108/46/172 105/43/172 
f 108/46/173 89/24/173 88/23/173 
f 108/46/174 88/23/174 105/43/174 
f 105/43/175 88/23/175 86/20/175 
f 93/29/176 91/27/176 109/47/176 
f 91/27/177 78/8/177 90/26/177 
f 91/27/178 90/26/178 109/47/178 
f 109/47/179 90/26/179 89/24/179 
f 111/49/180 112/50/180 113/51/180 
f 112/50/181 99/35/181 98/34/181 
f 112/50/182 98/34/182 113/51/182 
f 113/51/183 98/34/183 95/31/183 
f 111/52/184 114/53/184 112/54/184 
f 114/53/185 103/41/185 102/40/185 
f 114/53/186 102/40/186 112/54/186 
f 112/50/187 102/38/187 99/35/187 
f 111/55/188 115/56/188 114/53/188 
f 115/56/189 107/45/189 106/44/189 
f 115/56/190 106/44/190 114/53/190 
f 114/53/191 106/44/191 103/41/191 
f 111/57/192 116/58/192 115/56/192 
f 116/58/193 93/29/193 110/48/193 
f 116/58/194 110/48/194 115/56/194 
f 115/56/195 110/48/195 107/45/195 
f 111/59/196 113/51/196 116/58/196 
f 113/51/197 95/31/197 94/30/197 
f 113/51/198 94/30/198 116/58/198 
f 116/58/199 94/30/199 93/29/199 
# 27 polygons - 160 triangles

